<svg width="191" height="99" viewBox="0 0 191 99" fill="none" xmlns="http://www.w3.org/2000/svg">
<path opacity="0.7" d="M1 4.50018C1 4.50018 22.5 -4.49983 40.5 7.00017C55 22 40.5 27.5002 52.5 45.5002C56.7608 51.8914 67.4733 53.7065 79 53.5316C112 42 116.5 73 147 37" stroke="white" stroke-linecap="round" stroke-dasharray="2 5"/>
<g filter="url(#filter0_b_5291_4)">
<path d="M148.648 14.0695C149.649 12.9069 151.533 13.2586 152.047 14.7042L156.944 28.4611C157.246 29.3098 158.078 29.8519 158.976 29.785L173.538 28.7009C175.068 28.587 176.152 30.1676 175.493 31.5536L169.228 44.7433C168.841 45.557 169.046 46.5288 169.729 47.1167L180.792 56.647C181.955 57.6485 181.603 59.532 180.158 60.0465L166.401 64.9426C165.552 65.2447 165.01 66.0769 165.077 66.9753L166.161 81.5373C166.275 83.0675 164.694 84.1507 163.308 83.4923L150.118 77.2267C149.305 76.8402 148.333 77.0454 147.745 77.7279L138.215 88.7913C137.213 89.9539 135.33 89.6022 134.815 88.1566L129.919 74.3996C129.617 73.5509 128.785 73.0089 127.886 73.0758L113.324 74.1598C111.794 74.2737 110.711 72.6932 111.369 71.3072L117.635 58.1175C118.022 57.3038 117.816 56.332 117.134 55.744L106.07 46.2137C104.908 45.2123 105.26 43.3287 106.705 42.8142L120.462 37.9181C121.311 37.6161 121.853 36.7838 121.786 35.8854L120.702 21.3235C120.588 19.7933 122.169 18.7101 123.555 19.3685L136.744 25.634C137.558 26.0206 138.53 25.8154 139.118 25.1328L148.648 14.0695Z" fill="#F59B00"/>
<path d="M149.027 14.3958C149.778 13.5239 151.191 13.7876 151.576 14.8718L156.473 28.6288C156.85 29.6897 157.89 30.3672 159.013 30.2836L173.575 29.1996C174.723 29.1141 175.535 30.2995 175.042 31.339L168.776 44.5287C168.293 45.5459 168.549 46.7606 169.403 47.4956L180.466 57.0258C181.338 57.7769 181.074 59.1896 179.99 59.5755L166.233 64.4716C165.172 64.8492 164.494 65.8894 164.578 67.0125L165.662 81.5744C165.748 82.722 164.562 83.5344 163.523 83.0406L150.333 76.7751C149.316 76.2919 148.101 76.5484 147.366 77.4016L137.836 88.465C137.085 89.3369 135.672 89.0731 135.286 87.9889L130.39 74.232C130.013 73.1711 128.972 72.4935 127.849 72.5771L113.287 73.6612C112.14 73.7466 111.327 72.5612 111.821 71.5217L118.087 58.332C118.57 57.3149 118.313 56.1002 117.46 55.3652L106.397 45.8349C105.525 45.0838 105.789 43.6711 106.873 43.2853L120.63 38.3892C121.691 38.0116 122.368 36.9713 122.285 35.8483L121.201 21.2864C121.115 20.1387 122.3 19.3263 123.34 19.8201L136.53 26.0857C137.547 26.5689 138.762 26.3124 139.496 25.4592L149.027 14.3958Z" stroke="white"/>
</g>
<path d="M129.356 43.3424C129.403 42.409 129.729 41.6904 130.336 41.1864C130.952 40.673 131.759 40.4164 132.758 40.4164C133.439 40.4164 134.023 40.5377 134.508 40.7804C134.993 41.0137 135.357 41.3357 135.6 41.7464C135.852 42.1477 135.978 42.605 135.978 43.1184C135.978 43.7064 135.824 44.2057 135.516 44.6164C135.217 45.0177 134.858 45.2884 134.438 45.4284V45.4844C134.979 45.6524 135.399 45.951 135.698 46.3804C136.006 46.8097 136.16 47.3604 136.16 48.0324C136.16 48.5924 136.029 49.0917 135.768 49.5304C135.516 49.969 135.138 50.3144 134.634 50.5664C134.139 50.809 133.542 50.9304 132.842 50.9304C131.787 50.9304 130.929 50.6644 130.266 50.1324C129.603 49.6004 129.253 48.8164 129.216 47.7804H131.12C131.139 48.2377 131.293 48.6064 131.582 48.8864C131.881 49.157 132.287 49.2924 132.8 49.2924C133.276 49.2924 133.64 49.1617 133.892 48.9004C134.153 48.6297 134.284 48.2844 134.284 47.8644C134.284 47.3044 134.107 46.903 133.752 46.6604C133.397 46.4177 132.847 46.2964 132.1 46.2964H131.694V44.6864H132.1C133.425 44.6864 134.088 44.243 134.088 43.3564C134.088 42.955 133.967 42.6424 133.724 42.4184C133.491 42.1944 133.15 42.0824 132.702 42.0824C132.263 42.0824 131.923 42.2037 131.68 42.4464C131.447 42.6797 131.311 42.9784 131.274 43.3424H129.356ZM137.709 45.6244C137.709 44.0097 137.998 42.745 138.577 41.8304C139.165 40.9157 140.135 40.4584 141.489 40.4584C142.842 40.4584 143.808 40.9157 144.387 41.8304C144.975 42.745 145.269 44.0097 145.269 45.6244C145.269 47.2484 144.975 48.5224 144.387 49.4464C143.808 50.3704 142.842 50.8324 141.489 50.8324C140.135 50.8324 139.165 50.3704 138.577 49.4464C137.998 48.5224 137.709 47.2484 137.709 45.6244ZM143.337 45.6244C143.337 44.9337 143.29 44.355 143.197 43.8884C143.113 43.4124 142.935 43.025 142.665 42.7264C142.403 42.4277 142.011 42.2784 141.489 42.2784C140.966 42.2784 140.569 42.4277 140.299 42.7264C140.037 43.025 139.86 43.4124 139.767 43.8884C139.683 44.355 139.641 44.9337 139.641 45.6244C139.641 46.3337 139.683 46.931 139.767 47.4164C139.851 47.8924 140.028 48.2797 140.299 48.5784C140.569 48.8677 140.966 49.0124 141.489 49.0124C142.011 49.0124 142.408 48.8677 142.679 48.5784C142.949 48.2797 143.127 47.8924 143.211 47.4164C143.295 46.931 143.337 46.3337 143.337 45.6244ZM146.536 43.1604C146.536 42.451 146.741 41.8957 147.152 41.4944C147.572 41.093 148.108 40.8924 148.762 40.8924C149.415 40.8924 149.947 41.093 150.358 41.4944C150.778 41.8957 150.988 42.451 150.988 43.1604C150.988 43.879 150.778 44.439 150.358 44.8404C149.947 45.2417 149.415 45.4424 148.762 45.4424C148.108 45.4424 147.572 45.2417 147.152 44.8404C146.741 44.439 146.536 43.879 146.536 43.1604ZM155.524 41.0604L150.022 50.8604H148.118L153.606 41.0604H155.524ZM148.748 42.0684C148.234 42.0684 147.978 42.4324 147.978 43.1604C147.978 43.8977 148.234 44.2664 148.748 44.2664C149 44.2664 149.196 44.1777 149.336 44.0004C149.476 43.8137 149.546 43.5337 149.546 43.1604C149.546 42.4324 149.28 42.0684 148.748 42.0684ZM152.682 48.7464C152.682 48.0277 152.887 47.4724 153.298 47.0804C153.718 46.679 154.254 46.4784 154.908 46.4784C155.561 46.4784 156.088 46.679 156.49 47.0804C156.9 47.4724 157.106 48.0277 157.106 48.7464C157.106 49.465 156.9 50.025 156.49 50.4264C156.088 50.8277 155.561 51.0284 154.908 51.0284C154.245 51.0284 153.708 50.8277 153.298 50.4264C152.887 50.025 152.682 49.465 152.682 48.7464ZM154.894 47.6544C154.362 47.6544 154.096 48.0184 154.096 48.7464C154.096 49.4837 154.362 49.8524 154.894 49.8524C155.416 49.8524 155.678 49.4837 155.678 48.7464C155.678 48.0184 155.416 47.6544 154.894 47.6544ZM137.807 62.9304C137.154 62.9304 136.554 62.777 136.007 62.4704C135.46 62.1637 135.027 61.7404 134.707 61.2004C134.387 60.6537 134.227 60.037 134.227 59.3504C134.227 58.6704 134.387 58.0604 134.707 57.5204C135.027 56.9737 135.46 56.547 136.007 56.2404C136.554 55.9337 137.154 55.7804 137.807 55.7804C138.467 55.7804 139.067 55.9337 139.607 56.2404C140.154 56.547 140.584 56.9737 140.897 57.5204C141.217 58.0604 141.377 58.6704 141.377 59.3504C141.377 60.037 141.217 60.6537 140.897 61.2004C140.584 61.7404 140.154 62.1637 139.607 62.4704C139.06 62.777 138.46 62.9304 137.807 62.9304ZM137.807 61.6804C138.227 61.6804 138.597 61.587 138.917 61.4004C139.237 61.207 139.487 60.9337 139.667 60.5804C139.847 60.227 139.937 59.817 139.937 59.3504C139.937 58.8837 139.847 58.477 139.667 58.1304C139.487 57.777 139.237 57.507 138.917 57.3204C138.597 57.1337 138.227 57.0404 137.807 57.0404C137.387 57.0404 137.014 57.1337 136.687 57.3204C136.367 57.507 136.117 57.777 135.937 58.1304C135.757 58.477 135.667 58.8837 135.667 59.3504C135.667 59.817 135.757 60.227 135.937 60.5804C136.117 60.9337 136.367 61.207 136.687 61.4004C137.014 61.587 137.387 61.6804 137.807 61.6804ZM146.729 55.8804V57.0104H143.819V58.8004H146.049V59.9104H143.819V62.8604H142.419V55.8804H146.729ZM152.031 55.8804V57.0104H149.121V58.8004H151.351V59.9104H149.121V62.8604H147.721V55.8804H152.031Z" fill="white"/>
<defs>
<filter id="filter0_b_5291_4" x="85.375" y="-6.62598" width="116.113" height="116.113" filterUnits="userSpaceOnUse" color-interpolation-filters="sRGB">
<feFlood flood-opacity="0" result="BackgroundImageFix"/>
<feGaussianBlur in="BackgroundImageFix" stdDeviation="10"/>
<feComposite in2="SourceAlpha" operator="in" result="effect1_backgroundBlur_5291_4"/>
<feBlend mode="normal" in="SourceGraphic" in2="effect1_backgroundBlur_5291_4" result="shape"/>
</filter>
</defs>
</svg>
