<svg width="42" height="41" viewBox="0 0 42 41" fill="none" xmlns="http://www.w3.org/2000/svg">
<path d="M0.56523 15.7631C0.672131 15.1881 1.0294 14.7279 1.49535 14.5647L36.4648 2.39644C36.8186 2.27358 37.1846 2.52201 37.2821 2.95121C37.3796 3.38042 37.1718 3.82803 36.818 3.9509L3.41421 15.5792L27.5011 21.671C27.8596 21.7618 28.0868 22.1897 28.0086 22.6266C27.9305 23.0636 27.5765 23.3443 27.218 23.2535L2.76606 17.0682L11.0811 25.8581L21.6583 38.1854C21.8059 38.3583 22.0117 38.4375 22.2156 38.3997C22.4108 38.363 22.5813 38.2169 22.6761 38.0053L27.7058 27.8084L30.052 22.8089C30.2344 22.4196 30.6402 22.2806 30.9585 22.4986C30.9977 22.5314 31.0337 22.5694 31.0658 22.6121L31.0785 22.6002L37.8567 28.9747L33.7426 16.2846L13.6172 16.8421C13.371 16.8666 13.1353 16.7232 13.0051 16.4697C12.8749 16.2161 12.8717 15.8943 12.9968 15.634C13.1219 15.3738 13.3547 15.2178 13.6012 15.2293L33.8268 14.6637L40.2379 1.36879C40.4257 0.985646 40.8309 0.85556 41.1453 1.07756C41.4597 1.29955 41.5654 1.79036 41.3819 2.17659L34.9354 15.5406L39.0969 28.3824C39.3108 29.0467 39.1352 29.8073 38.6666 30.2459L38.6545 30.2573C38.3962 30.492 38.0769 30.6035 37.7576 30.5708C37.7307 30.5748 37.7036 30.5764 37.6766 30.5759L28.5877 29.0881L23.8251 38.8064C23.5286 39.4459 23.0059 39.8845 22.4107 39.9933C21.8004 40.1103 21.1829 39.8763 20.7393 39.3601L10.1834 27.0545L0.993785 17.3421C0.622063 16.9548 0.45741 16.3481 0.56523 15.7631ZM35.2222 28.5453L30.824 24.4128L29.6403 26.9409L29.3272 27.5798L35.2222 28.5453Z" fill="#F5E8D0"/>
</svg>
